<svg width="512" height="512" viewBox="0 0 512 512" fill="none" xmlns="http://www.w3.org/2000/svg">
  <!-- Background Circle -->
  <circle cx="256" cy="256" r="256" fill="#2563EB"/>
  
  <!-- Graduation Cap Base -->
  <path d="M256 140L140 190L256 240L372 190L256 140Z" fill="white" opacity="0.95"/>
  
  <!-- Graduation Cap Top -->
  <path d="M140 190V250C140 280 190 310 256 310C322 310 372 280 372 250V190L256 240L140 190Z" fill="white" opacity="0.85"/>
  
  <!-- Connection Lines - Left -->
  <line x1="160" y1="260" x2="120" y2="280" stroke="white" stroke-width="6" stroke-linecap="round" opacity="0.9"/>
  <line x1="160" y1="280" x2="120" y2="300" stroke="white" stroke-width="6" stroke-linecap="round" opacity="0.9"/>
  
  <!-- Connection Lines - Right -->
  <line x1="352" y1="260" x2="392" y2="280" stroke="white" stroke-width="6" stroke-linecap="round" opacity="0.9"/>
  <line x1="352" y1="280" x2="392" y2="300" stroke="white" stroke-width="6" stroke-linecap="round" opacity="0.9"/>
  
  <!-- Connection Nodes -->
  <circle cx="120" cy="280" r="10" fill="#FBBF24"/>
  <circle cx="120" cy="300" r="10" fill="#FBBF24"/>
  <circle cx="392" cy="280" r="10" fill="#FBBF24"/>
  <circle cx="392" cy="300" r="10" fill="#FBBF24"/>
  
  <!-- Book/Knowledge Symbol -->
  <rect x="220" y="330" width="72" height="55" rx="4" fill="white" opacity="0.9"/>
  <line x1="256" y1="335" x2="256" y2="380" stroke="#2563EB" stroke-width="3"/>
  <line x1="230" y1="350" x2="245" y2="350" stroke="#2563EB" stroke-width="2.5" stroke-linecap="round"/>
  <line x1="267" y1="350" x2="282" y2="350" stroke="#2563EB" stroke-width="2.5" stroke-linecap="round"/>
  <line x1="230" y1="365" x2="245" y2="365" stroke="#2563EB" stroke-width="2.5" stroke-linecap="round"/>
  <line x1="267" y1="365" x2="282" y2="365" stroke="#2563EB" stroke-width="2.5" stroke-linecap="round"/>
  
  <!-- Decorative Stars -->
  <path d="M410 150L415 160L425 165L415 170L410 180L405 170L395 165L405 160Z" fill="#FBBF24"/>
  <path d="M100 380L105 390L115 395L105 400L100 410L95 400L85 395L95 390Z" fill="#FBBF24"/>
  <path d="M430 350L433 356L439 359L433 362L430 368L427 362L421 359L427 356Z" fill="white" opacity="0.8"/>
  
  <!-- Tassel -->
  <line x1="372" y1="190" x2="395" y2="175" stroke="white" stroke-width="4" stroke-linecap="round"/>
  <circle cx="400" cy="170" r="8" fill="#FBBF24"/>
</svg>
